<?xml version="1.0" encoding="UTF-8"?>
<svg version="1.1" xmlns="http://www.w3.org/2000/svg" width="192" height="192">
<path d="M0 0 C16.06244144 12.43473358 28.34158253 27.67385684 35.24609375 46.91015625 C35.48481201 47.57418457 35.72353027 48.23821289 35.96948242 48.92236328 C44.0027455 72.7170919 41.58198924 100.06411131 30.77734375 122.54296875 C17.87361089 148.0463506 -4.53891347 164.35932532 -31.24609375 173.26171875 C-48.67316227 177.91183429 -69.08044109 176.88197095 -86.12890625 171.22265625 C-87.08579346 170.90917236 -87.08579346 170.90917236 -88.06201172 170.58935547 C-107.30699487 164.11617519 -123.31602434 151.69919219 -135.12890625 135.22265625 C-136.03576172 133.96388672 -136.03576172 133.96388672 -136.9609375 132.6796875 C-151.38020251 111.41205697 -155.57782976 84.10327659 -150.94140625 59.03515625 C-147.2554279 43.65691169 -140.43086293 29.25603422 -130.12890625 17.22265625 C-129.14664063 16.02382812 -129.14664063 16.02382812 -128.14453125 14.80078125 C-96.73834193 -22.10722225 -39.20066196 -27.60535082 0 0 Z " fill="#64BD6C" transform="translate(152.12890625,16.77734375)"/>
<path d="M0 0 C1.64162109 0.41378906 1.64162109 0.41378906 3.31640625 0.8359375 C21.76344869 5.74675426 38.43032738 12.46834706 53 25 C54.72038517 26.36530567 56.44887488 27.72049873 58.1875 29.0625 C58.92355469 29.63097656 59.65960938 30.19945312 60.41796875 30.78515625 C60.94003906 31.18605469 61.46210937 31.58695313 62 32 C61.125 35.875 61.125 35.875 60 37 C51.8442099 38.24109849 45.55000069 33.36666713 39 29 C39.474375 30.093125 39.94875 31.18625 40.4375 32.3125 C42.38708745 37.43476513 42.71029954 42.56561888 43 48 C40.59375 48.58203125 40.59375 48.58203125 38 49 C36.5 47.6875 36.5 47.6875 35 46 C33.34183216 45.31246699 31.67540664 44.64438717 30 44 C29.34 43.34 28.68 42.68 28 42 C26.99259766 41.81630859 26.99259766 41.81630859 25.96484375 41.62890625 C25.31644531 41.42136719 24.66804688 41.21382812 24 41 C23.12890625 39.21484375 23.12890625 39.21484375 22.5625 36.9375 C21.32163355 32.62204222 19.51635746 29.32034496 16.98828125 25.62890625 C16 24 16 24 16 22 C12.07882724 23.30705759 9.42368343 24.58888999 7 28 C6.30340867 32.179548 6.1057562 34.49505312 8.28125 38.15625 C9.31438033 39.51349964 10.38344274 40.84441132 11.4921875 42.140625 C14.92167791 46.36973753 15.38174096 49.56019138 15 55 C14 57.9375 14 57.9375 13 60 C9.69582707 59.7645302 8.90035527 58.8863349 6.66796875 56.33984375 C5.83154983 55.21278767 5.00519215 54.07821538 4.1875 52.9375 C3.30297587 51.7418629 2.41625532 50.54784757 1.52734375 49.35546875 C1.09663574 48.77587402 0.66592773 48.1962793 0.22216797 47.59912109 C-1.33847748 45.55712596 -3.01994385 43.64959395 -4.75 41.75 C-8.30035467 37.78391294 -11.13323973 33.47365485 -14 29 C-15.10065682 27.33101337 -16.20473863 25.66427959 -17.3125 24 C-17.80363281 23.2575 -18.29476562 22.515 -18.80078125 21.75 C-19.88321989 20.05558645 -19.88321989 20.05558645 -21 19 C-23.53541298 19.09086451 -26.03554784 19.2370945 -28.5625 19.4375 C-29.27341797 19.48970703 -29.98433594 19.54191406 -30.71679688 19.59570312 C-32.47821999 19.72574107 -34.23916173 19.86226897 -36 20 C-31.95260593 13.50907432 -26.82932388 8.93740547 -21 4 C-20.24203125 3.32453125 -19.4840625 2.6490625 -18.703125 1.953125 C-12.32994316 -3.11750873 -7.5370537 -2.10123921 0 0 Z " fill="#F3AF99" transform="translate(58,15)"/>
<path d="M0 0 C4.18809187 1.52730873 6.22732458 4.58457938 8.75 8.0625 C11.71850331 12.0570039 14.70656375 15.87213387 18.125 19.5 C22.95505258 24.78164286 26.38019523 30.86502572 30 37 C30.66 37.99 31.32 38.98 32 40 C37.36102428 40.43763463 42.68092697 39.67543785 48 39 C43.73654676 46.60759938 37.24956969 52.21207262 30.5 57.625 C29.6646875 58.29789063 28.829375 58.97078125 27.96875 59.6640625 C16.91638846 64.63762519 -2.33819891 55.12598967 -12.93359375 51.25 C-24.09115063 46.85105822 -33.04021916 40.17966473 -42.17919922 32.4987793 C-44.07668715 30.93687552 -46.02401786 29.46085237 -48 28 C-47.67 26.35 -47.34 24.7 -47 23 C-43.08306348 21.83468088 -40.72218314 21.85409224 -37.1328125 23.65234375 C-35.78756847 24.39750343 -34.45167003 25.15975255 -33.125 25.9375 C-32.09246094 26.51661133 -32.09246094 26.51661133 -31.0390625 27.10742188 C-29.35103473 28.0569375 -27.67431659 29.02651058 -26 30 C-26.433125 28.67935547 -26.433125 28.67935547 -26.875 27.33203125 C-27.24625 26.17058594 -27.6175 25.00914062 -28 23.8125 C-28.37125 22.66394531 -28.7425 21.51539063 -29.125 20.33203125 C-29.90630553 17.35679188 -30.18363306 15.04716104 -30 12 C-27.6875 11.3125 -27.6875 11.3125 -25 11 C-23.5 12.3125 -23.5 12.3125 -22 14 C-19.40084462 15.19027984 -19.40084462 15.19027984 -17 16 C-17 16.66 -17 17.32 -17 18 C-16.236875 17.9175 -15.47375 17.835 -14.6875 17.75 C-12 18 -12 18 -10.42578125 19.703125 C-8.47489826 22.84591732 -7.75458446 26.00590829 -6.84375 29.5625 C-5.94295325 32.16480172 -4.75370749 33.89555102 -3 36 C-0.06832781 35.68306247 1.58982661 35.36774166 3.8125 33.375 C5.59904577 29.80190846 5.63486076 27.99962277 5 24 C3.88503666 22.21661337 2.71155374 20.46922909 1.5 18.75 C-1.93796056 13.72849396 -2.70929143 10.23793952 -2.44140625 4.21484375 C-2 2 -2 2 0 0 Z " fill="#DA9D8A" transform="translate(123,117)"/>
<path d="M0 0 C3.11974441 1.48290483 6.06846506 3.17593382 9 5 C9.78375 4.360625 10.5675 3.72125 11.375 3.0625 C14.78251022 0.38517054 16.09253458 -0.17554273 20.3125 0.25 C24.1834782 0.74165157 26.91511173 1.47600051 30 4 C32.33583366 7.22567505 32.61142836 10.10214419 32 14 C28.01225754 20.91751244 19.8581455 26.77126315 12.7265625 30.04296875 C10.64307519 30.94338658 10.64307519 30.94338658 10 34 C6.27356111 33.42089125 4.459881 31.87129052 1.75 29.3125 C-1.16932082 26.61922214 -4.08584124 24.12845694 -7.3125 21.8125 C-11.04564006 19.06841896 -13.89251129 16.28881 -15.9375 12.0625 C-16.04078008 8.65425729 -14.87431052 6.81146579 -13 4 C-9.03251002 0.74206113 -5.1538123 -0.92768621 0 0 Z " fill="#EB3532" transform="translate(88,82)"/>
<path d="M0 0 C3.37479392 0.34292402 5.38997286 1.85099964 7.9765625 3.94921875 C8.72421875 4.54726318 9.471875 5.14530762 10.2421875 5.76147461 C11.02851562 6.39706299 11.81484375 7.03265137 12.625 7.6875 C31.67364269 22.71430209 51.71244539 28.83997492 75 35 C72.4541081 37.00034363 70.05261325 38.87423729 67 40 C65.02734375 39.65112305 65.02734375 39.65112305 62.9375 38.82421875 C59.54396083 37.56203843 56.17391593 36.43758573 52.6875 35.45703125 C36.91460468 30.92804366 21.91772353 26.24650406 9.44921875 15.171875 C6.3295391 12.40546051 2.98050551 10.01594524 -0.41796875 7.60546875 C-2 6 -2 6 -2 2 C-1.34 1.34 -0.68 0.68 0 0 Z " fill="#509857" transform="translate(71,143)"/>
<path d="M0 0 C4.95945037 1.21231009 7.13458653 5.57325112 9.8125 9.6875 C10.82334752 11.38943715 11.8236052 13.09771434 12.8125 14.8125 C14.65665594 17.98989797 16.43806822 20.49837386 19.125 23 C22.43055862 26.11985308 25.15780903 29.57335903 27.8125 33.25 C28.22282471 33.79245361 28.63314941 34.33490723 29.0559082 34.89379883 C31.16524875 37.8951151 31.83497906 39.38157399 31.5625 43.08984375 C31.315 43.94707031 31.0675 44.80429688 30.8125 45.6875 C28.8325 46.1825 28.8325 46.1825 26.8125 46.6875 C26.24402344 45.9140625 25.67554688 45.140625 25.08984375 44.34375 C19.86053619 37.2756594 19.86053619 37.2756594 14.1875 30.5625 C10.29996 26.22605238 7.06462782 21.50987718 3.8125 16.6875 C3.23886719 15.8521875 2.66523437 15.016875 2.07421875 14.15625 C-2.05460218 8.08619345 -2.05460218 8.08619345 -3.1875 4.6875 C-6.8175 5.0175 -10.4475 5.3475 -14.1875 5.6875 C-13.8575 4.6975 -13.5275 3.7075 -13.1875 2.6875 C-8.80492957 1.71744488 -4.38700205 0.94621613 0 0 Z " fill="#529858" transform="translate(34.1875,32.3125)"/>
<path d="M0 0 C1.4370809 -0.05422947 2.87475462 -0.09289723 4.3125 -0.125 C5.11300781 -0.14820313 5.91351563 -0.17140625 6.73828125 -0.1953125 C9 0 9 0 12 2 C13.64217443 2.3509154 15.28851937 2.68260222 16.9375 3 C20.03153504 3.90205103 21.57050581 4.42140679 23.5078125 7.03125 C26.11306868 13.12947927 26.74991574 19.42278396 27 26 C24.59375 26.58203125 24.59375 26.58203125 22 27 C20.5 25.6875 20.5 25.6875 19 24 C17.34183216 23.31246699 15.67540664 22.64438717 14 22 C13.34 21.34 12.68 20.68 12 20 C11.32839844 19.87753906 10.65679687 19.75507812 9.96484375 19.62890625 C9.31644531 19.42136719 8.66804688 19.21382812 8 19 C7.12890625 17.21484375 7.12890625 17.21484375 6.5625 14.9375 C5.32163355 10.62204222 3.51635746 7.32034496 0.98828125 3.62890625 C0 2 0 2 0 0 Z " fill="#EA9E87" transform="translate(74,37)"/>
<path d="M0 0 C3 0.3125 3 0.3125 6 1 C6.33 1.66 6.66 2.32 7 3 C8.64363134 3.72159424 10.31050386 4.39351421 12 5 C12 5.66 12 6.32 12 7 C13.1446875 6.87625 13.1446875 6.87625 14.3125 6.75 C17 7 17 7 18.5703125 8.70703125 C20.07423636 11.11906214 20.82433115 13.1999481 21.5625 15.9375 C22.53168594 19.39086253 23.57095242 22.7021979 25 26 C17.51039913 26.41608894 10.73494009 25.3723384 4.3125 21.29296875 C1.45271471 18.45733705 0.96272179 16.48394354 0.1875 12.5625 C-0.04582031 11.45003906 -0.27914062 10.33757812 -0.51953125 9.19140625 C-0.94276241 6.3801879 -1.17998684 3.83350716 -1 1 C-0.67 0.67 -0.34 0.34 0 0 Z " fill="#D28B77" transform="translate(94,128)"/>
<path d="M0 0 C1 2 1 2 0.3125 4.25 C-0.04640507 7.40836464 0.56635044 8.80558537 2.44140625 11.3359375 C5.14238509 14.21968935 8.25834233 16.55890901 11.3828125 18.96484375 C15.05895901 21.82345917 18.52930199 24.8977001 22 28 C20.1875 30.5 20.1875 30.5 18 33 C15 33 15 33 12.7578125 30.84375 C11.84773438 29.9053125 10.93765625 28.966875 10 28 C7.07480909 25.60494633 4.03157224 23.35841224 0.99609375 21.10546875 C-2.51593819 18.42424006 -5.14713126 16.13332257 -7 12 C-6.9288929 7.94689529 -6.64355765 5.78887712 -4.0625 2.625 C-2 1 -2 1 0 0 Z " fill="#519656" transform="translate(73,87)"/>
<path d="M0 0 C1.32 0 2.64 0 4 0 C8.59850545 5.38553572 11.14080332 12.24818049 13 19 C13.804375 19.12375 14.60875 19.2475 15.4375 19.375 C16.7059375 19.684375 16.7059375 19.684375 18 20 C18.33 20.66 18.66 21.32 19 22 C20.64363134 22.72159424 22.31050386 23.39351421 24 24 C24 25.98 24 27.96 24 30 C22.35 30.33 20.7 30.66 19 31 C18.773125 30.360625 18.54625 29.72125 18.3125 29.0625 C17.19250904 26.78388052 17.19250904 26.78388052 14.8125 26.4375 C13.884375 26.293125 12.95625 26.14875 12 26 C7.21662469 24.90905475 7.21662469 24.90905475 5 23 C3.66717815 20.03817366 2.78548072 17.09100259 1.91015625 13.96484375 C0.80161284 10.3537517 -0.70029362 7.95676534 -3 5 C-1.125 1.125 -1.125 1.125 0 0 Z " fill="#519857" transform="translate(70,37)"/>
<path d="M0 0 C3.875 0.875 3.875 0.875 5 2 C5.24645198 3.33024681 5.47185828 4.66441257 5.6875 6 C6.48440506 9.89186193 7.78721616 12.4236113 10.125 15.625 C12.2343083 18.60498101 12.9991638 19.99551495 13.6875 23.6875 C12.77875319 28.06600736 11.09760602 29.82495382 8 33 C7.01 32.67 6.02 32.34 5 32 C5.185625 30.0509375 5.185625 30.0509375 5.375 28.0625 C5.41592306 22.88164098 3.47469826 19.98789983 0.41015625 15.9453125 C-1.69951213 13.03502205 -2.15433158 10.50258537 -2.1875 7 C-2.20167969 6.319375 -2.21585937 5.63875 -2.23046875 4.9375 C-2 3 -2 3 0 0 Z " fill="#519857" transform="translate(116,121)"/>
<path d="M0 0 C1.60597325 0.45196245 3.20972508 0.91182327 4.8125 1.375 C6.15248047 1.75785156 6.15248047 1.75785156 7.51953125 2.1484375 C10 3 10 3 13 5 C13.94921875 7.64453125 13.94921875 7.64453125 14.6875 10.8125 C15.06455078 12.36904297 15.06455078 12.36904297 15.44921875 13.95703125 C15.95036681 16.72578545 16.10882124 19.19655747 16 22 C13.6875 22.6875 13.6875 22.6875 11 23 C7.43666831 20.16162009 6.39524783 16.22696119 4.9375 12.0625 C2.7835878 5.89738343 2.7835878 5.89738343 0 0 Z " fill="#F1AF98" transform="translate(85,41)"/>
<path d="M0 0 C3.171875 1.1171875 3.171875 1.1171875 4.28710938 2.84277344 C5.28276545 5.19832456 6.12442251 7.56239095 6.921875 9.9921875 C7.49721889 11.63639248 8.07524131 13.27966323 8.65625 14.921875 C8.90084961 15.65390137 9.14544922 16.38592773 9.39746094 17.14013672 C10.19474442 19.38226912 10.19474442 19.38226912 12.171875 22.1171875 C8.07227658 21.83924862 5.05595531 21.54940454 1.359375 19.7421875 C-2.85150609 14.68913019 -4.22979761 7.6242837 -3.828125 1.1171875 C-2.828125 0.1171875 -2.828125 0.1171875 0 0 Z " fill="#D99E8A" transform="translate(96.828125,127.8828125)"/>
<path d="M0 0 C-0.33 1.32 -0.66 2.64 -1 4 C0.98 4 2.96 4 5 4 C4.6875 5.9375 4.6875 5.9375 4 8 C3.01 8.33 2.02 8.66 1 9 C-0.22520264 12.00847418 -0.22520264 12.00847418 -1 15 C-2.98 15 -4.96 15 -7 15 C-8.66543772 11.3185061 -9.24560547 9.69588216 -7.875 5.8125 C-5.79639351 2.69459027 -3.97776531 0 0 0 Z " fill="#E73E38" transform="translate(81,83)"/>
<path d="M0 0 C2.3125 -0.3125 2.3125 -0.3125 5 0 C8.6907307 4.10081189 9.12994344 9.72848087 10 15 C8.32700041 14.34938905 6.66140763 13.67966676 5 13 C4.2575 12.71125 3.515 12.4225 2.75 12.125 C1 11 1 11 0.25 9.3125 C-0.08664439 6.19853938 -0.06017169 3.12892809 0 0 Z " fill="#519858" transform="translate(87,132)"/>
<path d="M0 0 C3.79049707 1.42749981 7.27122456 3.16236542 10.8125 5.125 C12.27623047 5.93324219 12.27623047 5.93324219 13.76953125 6.7578125 C14.50558594 7.16773438 15.24164063 7.57765625 16 8 C15.34 9.32 14.68 10.64 14 12 C6.28125 12.296875 6.28125 12.296875 3 10 C1.953125 7.6171875 1.953125 7.6171875 1.25 4.875 C0.88648437 3.50988281 0.88648437 3.50988281 0.515625 2.1171875 C0.34546875 1.41851562 0.1753125 0.71984375 0 0 Z " fill="#529858" transform="translate(97,44)"/>
<path d="M0 0 C0.66 0 1.32 0 2 0 C2.32613281 0.90363281 2.65226562 1.80726563 2.98828125 2.73828125 C3.64376953 4.50751953 3.64376953 4.50751953 4.3125 6.3125 C4.74175781 7.48425781 5.17101562 8.65601563 5.61328125 9.86328125 C7.63327141 14.43244208 9.75089736 16.07829547 14.1875 18.1875 C14.90292969 18.53167969 15.61835937 18.87585938 16.35546875 19.23046875 C17.16951172 19.61138672 17.16951172 19.61138672 18 20 C18 20.66 18 21.32 18 22 C10.26903941 22.42949781 3.32027227 21.32419059 -3.125 16.8125 C-3.74375 16.214375 -4.3625 15.61625 -5 15 C-4.34 14.67 -3.68 14.34 -3 14 C-2.01 14.66 -1.02 15.32 0 16 C2.32387947 16.39387788 4.65793749 16.73486085 7 17 C6.55011719 16.47921875 6.10023437 15.9584375 5.63671875 15.421875 C3.64076021 12.46842799 2.8038475 9.66843964 1.8125 6.25 C1.46832031 5.07953125 1.12414062 3.9090625 0.76953125 2.703125 C0.51558594 1.81109375 0.26164062 0.9190625 0 0 Z " fill="#CF816D" transform="translate(101,132)"/>
<path d="M0 0 C1.4370809 -0.05422947 2.87475462 -0.09289723 4.3125 -0.125 C5.11300781 -0.14820313 5.91351563 -0.17140625 6.73828125 -0.1953125 C9 0 9 0 12 2 C14.58958113 2.79011181 17.19618819 3.45555498 19.8203125 4.12109375 C20.53960937 4.41113281 21.25890625 4.70117188 22 5 C22.33 5.99 22.66 6.98 23 8 C21.37433394 7.52309796 19.74948689 7.04340334 18.125 6.5625 C17.22007813 6.29566406 16.31515625 6.02882813 15.3828125 5.75390625 C13 5 13 5 11 4 C10.67 5.65 10.34 7.3 10 9 C8.62437146 7.71034824 7.29233607 6.37310707 6 5 C6 4.34 6 3.68 6 3 C4.35 3 2.7 3 1 3 C0.67 2.01 0.34 1.02 0 0 Z " fill="#E18B73" transform="translate(74,37)"/>
<path d="M0 0 C1.32 0 2.64 0 4 0 C8.71916363 4.98883013 8.76352056 10.35492772 9 17 C7.1015625 16.30078125 7.1015625 16.30078125 5 15 C4.0234375 12.79296875 4.0234375 12.79296875 3.375 10.1875 C2.44407414 6.67236465 1.44965011 3.34534641 0 0 Z " fill="#EFAE97" transform="translate(76,40)"/>
<path d="M0 0 C1.86328125 0.625 1.86328125 0.625 4 2 C5.23046875 4.75 5.23046875 4.75 6.1875 8 C7.36538771 12.09095915 7.36538771 12.09095915 9 16 C5.84456749 15.74415412 4.40497117 15.44836094 2.25 13.0625 C0.50336194 8.78323676 0.25817803 4.58488569 0 0 Z " fill="#D7A08A" transform="translate(109,135)"/>
<path d="M0 0 C-0.3125 1.9375 -0.3125 1.9375 -1 4 C-1.99 4.33 -2.98 4.66 -4 5 C-5.22520264 8.00847418 -5.22520264 8.00847418 -6 11 C-6.99 10.67 -7.98 10.34 -9 10 C-9.25 6.6875 -9.25 6.6875 -9 3 C-6.29148704 -0.10977414 -4.00164289 -0.33347024 0 0 Z " fill="#FDE7E3" transform="translate(86,87)"/>
<path d="M0 0 C2.9375 0.875 2.9375 0.875 4.9375 3.875 C3.48114629 4.09674933 2.02227044 4.30198698 0.5625 4.5 C-0.24960937 4.61601563 -1.06171875 4.73203125 -1.8984375 4.8515625 C-2.61257812 4.85929687 -3.32671875 4.86703125 -4.0625 4.875 C-4.7225 4.215 -5.3825 3.555 -6.0625 2.875 C-4.09998049 0.14927846 -3.4499287 -0.14081342 0 0 Z " fill="#ECA78F" transform="translate(31.0625,29.125)"/>
<path d="M0 0 C3.00617269 3.00617269 2.59585316 5.82381598 3 10 C2.01 10.495 2.01 10.495 1 11 C-0.20272819 8.59454362 -0.10071472 7.05003047 -0.0625 4.375 C-0.05347656 3.55773438 -0.04445313 2.74046875 -0.03515625 1.8984375 C-0.02355469 1.27195313 -0.01195313 0.64546875 0 0 Z " fill="#E18B72" transform="translate(84,46)"/>
<path d="M0 0 C0.99 0 1.98 0 3 0 C3.66 3.3 4.32 6.6 5 10 C2.47671768 7.47671768 1.28600973 6.1655624 0 3 C0 2.01 0 1.02 0 0 Z " fill="#DC9A88" transform="translate(105,138)"/>
<path d="M0 0 C-1.32 1.32 -2.64 2.64 -4 4 C-4.66 3.67 -5.32 3.34 -6 3 C-7.32860925 2.64830932 -8.66158328 2.31229724 -10 2 C-6.5980513 -0.09350689 -3.94727588 -0.17942163 0 0 Z " fill="#CD8D7B" transform="translate(114,159)"/>
</svg>
