<?xml version="1.0" encoding="UTF-8"?>
<svg version="1.1" xmlns="http://www.w3.org/2000/svg" width="512" height="512">
<path d="M0 0 C1.2094075 -0.01111313 2.418815 -0.02222626 3.66487122 -0.03367615 C7.53713306 -0.06052426 11.40889936 -0.0670661 15.28125 -0.06640625 C15.94011074 -0.06702309 16.59897148 -0.06763992 17.2777977 -0.06827545 C37.28819578 -0.08189674 56.31184165 0.45617271 75.78125 5.37109375 C76.7707666 5.60634766 77.7602832 5.84160156 78.77978516 6.08398438 C85.18990826 7.62012875 91.49082574 9.40510621 97.78125 11.37109375 C98.58578613 11.61520996 99.39032227 11.85932617 100.21923828 12.11083984 C144.87787602 25.83873315 186.72425507 54.79125223 215.78125 91.37109375 C216.66881888 92.46781383 217.55685441 93.5641564 218.4453125 94.66015625 C243.62902162 125.93223461 259.98157444 161.95479465 269.15625 200.93359375 C269.39496826 201.94244629 269.63368652 202.95129883 269.87963867 203.99072266 C273.70866305 221.06000095 274.18773691 237.75581472 274.15625 255.18359375 C274.15493576 256.95363266 274.15493576 256.95363266 274.15359497 258.75942993 C274.11146261 275.93470681 273.72936558 292.57691253 269.78125 309.37109375 C269.53455566 310.44133789 269.28786133 311.51158203 269.03369141 312.61425781 C258.83805983 355.66248002 239.43407623 396.11658831 208.78125 428.37109375 C207.56552491 429.76049385 206.35662389 431.15590966 205.15625 432.55859375 C199.16608781 439.41245375 192.7253928 445.3986083 185.62109375 451.08984375 C183.78221157 452.56702008 181.96046177 454.06588915 180.16015625 455.58984375 C141.32816002 488.36335617 87.38710584 511.70859602 36.21484375 511.671875 C34.84643936 511.67578127 33.47803615 511.68011973 32.1096344 511.68486023 C29.25818943 511.69225866 26.40686837 511.69207999 23.55541992 511.68676758 C20.67667967 511.68215019 17.79836323 511.68900972 14.91967773 511.70727539 C-5.90850441 511.83809885 -25.73899301 510.91537633 -45.90625 505.24609375 C-46.98946533 504.94606445 -48.07268066 504.64603516 -49.1887207 504.33691406 C-100.76639171 489.69107999 -147.60642261 461.60476486 -181.21875 419.37109375 C-182.08227114 418.32074043 -182.94688435 417.27128412 -183.8125 416.22265625 C-211.23819576 382.65042196 -228.57907828 340.84697242 -236.21875 298.37109375 C-236.40783936 297.35950195 -236.59692871 296.34791016 -236.79174805 295.30566406 C-238.71176633 283.38359061 -238.55578786 271.4035702 -238.53442383 259.35742188 C-238.53126855 255.64292904 -238.55477504 251.92923843 -238.58007812 248.21484375 C-238.61696804 234.64122415 -238.00533613 221.6690349 -235.21875 208.37109375 C-234.98373779 207.2123877 -234.74872559 206.05368164 -234.5065918 204.85986328 C-233.85605902 201.82807795 -233.1504561 198.8186394 -232.40625 195.80859375 C-232.14545654 194.74833984 -231.88466309 193.68808594 -231.6159668 192.59570312 C-221.35878982 151.77689232 -200.95405669 115.57176149 -173.5234375 83.87988281 C-172.28023981 82.44220285 -171.04612386 80.99668454 -169.8125 79.55078125 C-169.1009375 78.72835937 -168.389375 77.9059375 -167.65625 77.05859375 C-167.03621094 76.34058594 -166.41617188 75.62257813 -165.77734375 74.8828125 C-164.21875 73.37109375 -164.21875 73.37109375 -162.21875 73.37109375 C-162.21875 72.71109375 -162.21875 72.05109375 -162.21875 71.37109375 C-160.8203125 69.9609375 -160.8203125 69.9609375 -158.84375 68.30859375 C-156.54804431 66.36760647 -154.28123505 64.43001807 -152.09375 62.3671875 C-139.03419188 50.05583323 -123.71324944 40.31244138 -108.21875 31.37109375 C-107.57873047 31.00145508 -106.93871094 30.63181641 -106.27929688 30.25097656 C-74.67597086 12.22279111 -36.4576211 0.181591 0 0 Z " fill="#64BD6C" transform="translate(238.21875,0.62890625)"/>
<path d="M0 0 C2.11209725 0.56633344 4.23076481 1.09640549 6.35400391 1.61932373 C11.05492848 2.78464281 15.74060913 4.00450951 20.42431641 5.23699951 C21.66989822 5.56356537 21.66989822 5.56356537 22.94064331 5.89672852 C36.06692771 9.35065725 48.92885591 13.25862525 61.73876953 17.75799561 C64.92132265 18.84821509 68.13250166 19.79449021 71.36181641 20.73699951 C77.18938202 22.49378224 82.56878351 24.9235873 88.04931641 27.54949951 C89.44239416 28.18061761 90.83817138 28.80581721 92.23681641 29.42449951 C93.31576172 29.90596436 93.31576172 29.90596436 94.41650391 30.39715576 C96.5197296 31.31770707 98.62876497 32.2173433 100.74462891 33.10809326 C113.47802509 38.50326221 124.5627979 44.90000354 135.33447266 53.58074951 C139.23636605 56.72147612 143.22510839 59.73841615 147.23681641 62.73699951 C147.91566895 63.24505127 148.59452148 63.75310303 149.29394531 64.27655029 C153.06318935 67.08951468 156.85658095 69.86502393 160.67431641 72.61199951 C176.6688219 84.16900501 176.6688219 84.16900501 181.04931641 88.54949951 C181.63310019 95.55490492 181.63310019 95.55490492 179.36181641 99.42449951 C175.05970835 103.377788 171.25985278 103.77734245 165.62353516 103.91278076 C158.69380236 102.93483668 152.60618226 99.39958732 146.61181641 95.98699951 C145.84627441 95.55661377 145.08073242 95.12622803 144.29199219 94.68280029 C136.14647878 90.08272614 128.0885133 85.33231285 120.04931641 80.54949951 C120.31486328 81.17856201 120.58041016 81.80762451 120.85400391 82.45574951 C121.38380859 83.73965576 121.38380859 83.73965576 121.92431641 85.04949951 C122.44638672 86.30246826 122.44638672 86.30246826 122.97900391 87.58074951 C124.27668182 91.18014811 125.17081227 94.83207361 126.04931641 98.54949951 C126.25572754 99.3877124 126.46213867 100.22592529 126.67480469 101.08953857 C127.35625237 103.86446977 128.01645553 106.64388987 128.67431641 109.42449951 C128.90376953 110.35391357 129.13322266 111.28332764 129.36962891 112.24090576 C130.78334085 118.27442638 131.91052858 124.34463922 131.04931641 130.54949951 C128.3748384 133.95338062 126.82117025 134.45301778 122.54931641 134.98699951 C118.75597715 134.51283211 117.00281685 133.9442296 114.04931641 131.54949951 C113.47181641 130.51824951 112.89431641 129.48699951 112.29931641 128.42449951 C110.42723941 125.39587345 110.42723941 125.39587345 107.97509766 125.11590576 C106.39725461 125.0298416 104.81911082 124.94912725 103.24072266 124.87371826 C101.04931641 124.54949951 101.04931641 124.54949951 98.04931641 122.29949951 C96.05434859 119.55641876 95.33585544 117.89245491 95.04931641 114.54949951 C94.05931641 114.87949951 93.06931641 115.20949951 92.04931641 115.54949951 C85.02917487 116.11563996 85.02917487 116.11563996 81.23681641 113.92449951 C76.87833754 109.19243674 75.7302939 104.49931667 74.92431641 98.23699951 C73.5132408 89.30228245 69.72745583 82.09356828 65.13769531 74.38641357 C64.18070159 72.77124516 63.27296964 71.12710194 62.37353516 69.47918701 C59.63014078 64.73342682 59.63014078 64.73342682 54.73681641 62.61199951 C46.92317848 64.59851763 40.47084362 69.83747624 36.04931641 76.54949951 C32.92071836 82.86101153 33.1497958 89.72006232 34.04931641 96.54949951 C35.829993 100.69563111 38.27392302 104.01276281 41.04931641 107.54949951 C42.28721005 109.29333724 43.51665607 111.04320812 44.73681641 112.79949951 C45.31431641 113.61934326 45.89181641 114.43918701 46.48681641 115.28387451 C48.57394708 118.31021398 50.35556637 121.27880979 52.04931641 124.54949951 C52.42185547 125.22754639 52.79439453 125.90559326 53.17822266 126.60418701 C57.4337489 135.41179185 57.66648198 145.91030591 54.99072266 155.24090576 C52.01148746 162.58732846 52.01148746 162.58732846 49.04931641 165.54949951 C45.62372188 165.44586808 44.23565342 164.71425426 41.65478516 162.43231201 C34.7526883 154.56013046 28.45312369 146.52355544 23.00097656 137.55389404 C17.85310679 129.16555114 11.5662358 122.31126148 4.72119141 115.27313232 C-5.73302424 104.49527566 -13.64323515 93.3320928 -20.89208984 80.24871826 C-29.26419261 64.42218336 -29.26419261 64.42218336 -41.95068359 52.54949951 C-52.5139108 50.53270188 -64.95146203 54.64820727 -74.89990234 57.99871826 C-76.95068359 58.54949951 -76.95068359 58.54949951 -80.95068359 58.54949951 C-79.31740811 54.54317083 -76.50784037 51.70233843 -73.57568359 48.61199951 C-72.60799201 47.58350378 -71.64182381 46.55357242 -70.67724609 45.52215576 C-70.21350586 45.02731689 -69.74976562 44.53247803 -69.27197266 44.02264404 C-68.02228086 42.62932544 -66.8691644 41.15111416 -65.72412109 39.67059326 C-65.13888672 38.97063232 -64.55365234 38.27067139 -63.95068359 37.54949951 C-63.29068359 37.54949951 -62.63068359 37.54949951 -61.95068359 37.54949951 C-61.95068359 36.88949951 -61.95068359 36.22949951 -61.95068359 35.54949951 C-60.55224609 34.13934326 -60.55224609 34.13934326 -58.57568359 32.48699951 C-56.2799779 30.54601223 -54.01316864 28.60842383 -51.82568359 26.54559326 C-44.49145678 19.63155653 -36.41908788 13.86806149 -28.15771484 8.11981201 C-26.11624141 6.66729463 -24.14107718 5.15722768 -22.16943359 3.61199951 C-21.01404366 2.75666984 -19.85784669 1.90242878 -18.70068359 1.04949951 C-17.72615234 0.29668701 -16.75162109 -0.45612549 -15.74755859 -1.23175049 C-10.10197822 -3.04391209 -5.62740724 -1.51663705 0 0 Z " fill="#F3B099" transform="translate(137.95068359375,36.45050048828125)"/>
<path d="M0 0 C4.82075161 0.41320728 6.94154701 2.54043842 10 6 C10.57492187 6.59554688 11.14984375 7.19109375 11.7421875 7.8046875 C16.01842182 12.35569993 19.58055915 17.17144632 23 22.375 C23.42861328 23.02645996 23.85722656 23.67791992 24.29882812 24.34912109 C25.53414499 26.23171015 26.76759224 28.11550552 28 30 C33.0648404 37.73882446 38.90361212 44.01566421 45.49291992 50.44433594 C50.68141286 55.55400808 55.02500299 60.88532942 59 67 C59.56589844 67.84433594 60.13179687 68.68867188 60.71484375 69.55859375 C63.3239739 73.54032752 65.78814754 77.56977973 68.05078125 81.7578125 C73.58618119 91.98610658 79.72210028 101.72210028 88 110 C95.04140655 110.5833604 101.57780005 109.04204313 108.4375 107.5625 C115.62427448 106.03257842 122.67802082 104.66983406 130 104 C125.97320689 109.59076666 121.673705 114.74888021 116.9375 119.75 C116.28120605 120.44391846 115.62491211 121.13783691 114.94873047 121.8527832 C103.8561035 133.47688168 91.98114037 143.53514199 79 153 C78.30986816 153.50966309 77.61973633 154.01932617 76.90869141 154.54443359 C74.93414518 155.99105149 72.94118601 157.40661002 70.9375 158.8125 C70.35500488 159.23934082 69.77250977 159.66618164 69.17236328 160.10595703 C63.78427385 163.77762335 59.37529502 163.59567578 53.26782227 162.51782227 C50.09938928 161.8632897 46.95775003 161.13305377 43.8125 160.375 C42.66338135 160.10284668 41.5142627 159.83069336 40.33032227 159.55029297 C13.19328892 153.02958764 -14.6195043 145.29487583 -39.94921875 133.41796875 C-44.7520436 131.18566988 -49.60674118 129.06987943 -54.45654297 126.94189453 C-56.64436667 125.97527161 -58.82432754 124.99365718 -61 124 C-61.6798999 123.69030273 -62.3597998 123.38060547 -63.06030273 123.06152344 C-68.05198048 120.68724796 -72.32511364 117.75350816 -76.6875 114.375 C-77.72342285 113.5854895 -77.72342285 113.5854895 -78.78027344 112.7800293 C-80.85877967 111.1934107 -82.93015296 109.59789166 -85 108 C-86.16777411 107.10261124 -87.33573065 106.20545981 -88.50390625 105.30859375 C-90.11849776 104.06779911 -91.73236623 102.82611283 -93.34423828 101.58178711 C-99.89475113 96.52612446 -106.52491864 91.57635342 -113.171875 86.6484375 C-116.12814023 84.44962331 -119.06629222 82.22877368 -122 80 C-122.76183594 79.443125 -123.52367187 78.88625 -124.30859375 78.3125 C-127.22416237 76.05982727 -128.84238959 74.63044162 -129.75 71 C-128.74283861 66.97135444 -126.91612651 64.91612651 -124 62 C-119.72729678 59.48816841 -115.83266336 59.16042713 -111 60 C-100.00386971 63.83748202 -89.99235946 70.36165421 -80.03686523 76.28759766 C-79.03985596 76.8810498 -78.04284668 77.47450195 -77.015625 78.0859375 C-76.12133789 78.6226709 -75.22705078 79.1594043 -74.30566406 79.71240234 C-71.9573974 81.1177893 -71.9573974 81.1177893 -69 82 C-69.29132813 81.48824219 -69.58265625 80.97648437 -69.8828125 80.44921875 C-71.30541673 77.33043256 -72.08325621 74.13266387 -72.875 70.8125 C-73.04354492 70.11415039 -73.21208984 69.41580078 -73.38574219 68.69628906 C-73.74213942 67.21733938 -74.09692086 65.73799951 -74.45019531 64.25830078 C-74.99298215 62.02882555 -75.56674711 59.80945182 -76.1484375 57.58984375 C-80.4614092 40.82051409 -80.4614092 40.82051409 -79 33 C-77.70703125 31.2109375 -77.70703125 31.2109375 -76 30 C-70.13197745 29.21759699 -67.07643975 30.02558888 -62.34765625 33.515625 C-60.74035079 35.28599044 -60.39355356 36.6685688 -60 39 C-59.41992188 39.01417969 -58.83984375 39.02835937 -58.2421875 39.04296875 C-52.10256667 39.41783009 -49.30358394 40.59394978 -45 45 C-44.566875 45.763125 -44.13375 46.52625 -43.6875 47.3125 C-42.16070832 49.21558434 -42.16070832 49.21558434 -39.99609375 49.10546875 C-38.82240234 49.05326172 -38.82240234 49.05326172 -37.625 49 C-34.35204043 48.87779534 -33.14387988 48.92806006 -30.125 50.4375 C-25.69351907 55.78134466 -24.72540444 62.64206667 -23.625 69.34765625 C-22.0333594 76.10218105 -19.13645182 81.88127083 -15.5 87.75 C-15.10941406 88.39582031 -14.71882813 89.04164063 -14.31640625 89.70703125 C-11.44370909 94.56433817 -11.44370909 94.56433817 -8 99 C-3.71153814 99.81332897 -1.46207955 99.82713319 2.34765625 97.671875 C7.91842064 93.54262727 12.91373676 88.9272594 14.8125 82.0625 C14.874375 81.381875 14.93625 80.70125 15 80 C15.66 80 16.32 80 17 80 C16.76804054 68.90812048 13.36131908 61.92904592 6.625 53.25 C-2.85607948 40.99435713 -6.96617513 29.5774551 -6 14 C-4.96817874 8.54202136 -3.50627706 4.34110493 0 0 Z " fill="#DC9E8B" transform="translate(328,312)"/>
<path d="M0 0 C3.27380304 2.43210083 6.17128447 5.06771594 9 8 C9.66 8.66 10.32 9.32 11 10 C11.495 9.29875 11.99 8.5975 12.5 7.875 C18.88995435 0.5265525 26.91443606 -4.37268592 36.69140625 -5.23828125 C47.86240562 -5.52705538 58.53252391 -2.57881028 67 5 C72.06289508 10.96659463 75.06578153 16.92154523 74.9375 24.875 C72.9013845 36.63922286 63.35914463 44.98588831 54.11254883 51.65039062 C51.72383389 53.33393624 49.3215499 54.99744295 46.91796875 56.65966797 C35.24358025 64.81806828 24.19239099 73.49307296 14.3203125 83.796875 C12 86 12 86 9.5625 86.3125 C6.81251007 84.90396857 6.24343411 84.11052757 4.5625 81.625 C-0.00937247 75.08710603 -6.67712162 70.7187984 -13 66 C-14.34941503 64.98237615 -15.69836894 63.96414057 -17.046875 62.9453125 C-24.6760565 57.18877203 -24.6760565 57.18877203 -32.3984375 51.55859375 C-42.60647551 44.1661229 -50.85856126 36.74798298 -53.41015625 23.94140625 C-53.94367031 17.14252199 -50.44541165 11.27748678 -46.49609375 5.984375 C-34.52300682 -7.28699846 -15.0079824 -8.02084774 0 0 Z " fill="#EC3431" transform="translate(246,225)"/>
<path d="M0 0 C0.87527344 -0.04898437 1.75054687 -0.09796875 2.65234375 -0.1484375 C5.0625 0.375 5.0625 0.375 6.5390625 2.625 C7.29316406 3.98625 7.29316406 3.98625 8.0625 5.375 C10.52861527 7.61369708 10.52861527 7.61369708 13.5 9.75 C14.05494141 10.16572266 14.60988281 10.58144531 15.18164062 11.00976562 C16.43325112 11.94611578 17.68783643 12.87849817 18.94482422 13.80761719 C22.12965189 16.16484496 25.29591507 18.54667664 28.46459961 20.92553711 C30.20267804 22.22979012 31.9417813 23.53267848 33.68188477 24.83422852 C38.46490066 28.41321728 43.2188033 32.02430124 47.9375 35.6875 C49.97597866 37.25415688 52.01766011 38.81665509 54.0625 40.375 C54.62098633 40.80151855 55.17947266 41.22803711 55.75488281 41.66748047 C65.19634663 48.82353146 74.69775632 53.84381539 85.734375 58.234375 C89.39482098 59.69293038 93.0310038 61.19824001 96.65625 62.7421875 C108.64476233 67.84297446 120.60473008 72.55619728 133.0625 76.375 C133.70010254 76.57367676 134.33770508 76.77235352 134.99462891 76.97705078 C154.93022839 83.1611342 175.41328593 89.20834736 196.0625 92.375 C189.37669612 97.8549714 183.0302417 103.01373056 174 102.5 C171.67870787 102.18395553 169.36564503 101.80372397 167.0625 101.375 C166.41990234 101.25833984 165.77730469 101.14167969 165.11523438 101.02148438 C145.89311799 97.42770423 127.2212965 91.12756593 108.625 85.1875 C107.96287506 84.97744324 107.30075012 84.76738647 106.61856079 84.55096436 C99.89842065 82.41364585 93.32129936 80.21642859 86.92553711 77.23510742 C84.35720064 76.04938479 81.71957051 75.09252024 79.0625 74.125 C71.49135767 71.24920854 64.22969328 67.80551349 56.94677734 64.27685547 C55.35727337 63.51608485 53.75243035 62.7874855 52.14453125 62.06640625 C46.49358921 59.47002747 42.1018061 56.11946996 37.375 52.09765625 C33.27330691 48.66015778 28.94312696 45.53279384 24.625 42.375 C23.79661621 41.76817383 22.96823242 41.16134766 22.11474609 40.53613281 C20.49582926 39.35087158 18.87653796 38.16612162 17.25683594 36.98193359 C-7.35146509 18.96103491 -7.35146509 18.96103491 -11.9375 14.375 C-12.32051738 11.11935228 -12.61392942 8.51331966 -10.890625 5.61328125 C-7.41492439 1.39132727 -5.33552315 0.20370573 0 0 Z " fill="#4F9757" transform="translate(193.9375,382.625)"/>
<path d="M0 0 C9.87350584 8.07656642 15.72781396 19.90918028 21.79052734 30.87304688 C29.61702483 44.97701072 39.16407704 56.28619388 50.62890625 67.53125 C56.3303283 73.35186554 60.61394392 79.93780047 64.8984375 86.828125 C68.71753651 92.62105539 72.95360409 98.90282284 77.87109375 103.8203125 C77.94053126 110.16690096 76.25876429 115.48952527 72.87109375 120.8203125 C72.21109375 121.4803125 71.55109375 122.1403125 70.87109375 122.8203125 C67.44549922 122.71668107 66.05743077 121.98506725 63.4765625 119.703125 C56.57446565 111.83094345 50.27490103 103.79436843 44.82275391 94.82470703 C39.2555247 85.75302697 32.26589712 78.4251586 24.87109375 70.8203125 C15.49834614 61.07240694 8.43913977 50.79280543 1.99609375 38.9453125 C-3.74334404 28.40048055 -10.06393603 17.85166226 -19.12890625 9.8203125 C-21.38077787 9.03750362 -21.38077787 9.03750362 -23.56640625 9.3203125 C-24.73236328 9.40152344 -24.73236328 9.40152344 -25.921875 9.484375 C-29.08803056 9.9663031 -32.06241059 10.9003638 -35.12890625 11.8203125 C-39.45025328 12.57185111 -43.786058 13.20643621 -48.12890625 13.8203125 C-45.30702523 8.92208983 -42.86285015 5.57309506 -37.265625 4.015625 C-35.45585324 3.62659636 -33.63876403 3.27031898 -31.81640625 2.9453125 C-30.91728516 2.7596875 -30.01816406 2.5740625 -29.09179688 2.3828125 C-27.30522941 2.01593964 -25.5158605 1.66242988 -23.72387695 1.32299805 C-21.22778165 0.83946618 -18.7548997 0.29282015 -16.27734375 -0.27734375 C-5.0332202 -2.78905046 -5.0332202 -2.78905046 0 0 Z " fill="#509757" transform="translate(98.12890625,89.1796875)"/>
<path d="M0 0 C19.25141868 -0.61440698 19.25141868 -0.61440698 27.59765625 3.859375 C33.82087034 7.10742369 40.66810823 8.56858393 47.41992188 10.35546875 C53.52570756 12.04324691 58.36402589 13.3980478 62.2578125 18.71875 C65.12940642 24.61715914 66.56205412 30.62074919 68 37 C68.43051601 38.77126586 68.86296842 40.54206168 69.296875 42.3125 C69.76118373 44.24981632 70.22471919 46.18731812 70.6875 48.125 C70.91429443 49.04297363 71.14108887 49.96094727 71.37475586 50.90673828 C72.76804887 56.86975469 73.84060505 62.87040672 73 69 C70.32552199 72.4038811 68.77185385 72.90351827 64.5 73.4375 C60.70666075 72.96333259 58.95350045 72.39473009 56 70 C55.4225 68.96875 54.845 67.9375 54.25 66.875 C52.377923 63.84637394 52.377923 63.84637394 49.92578125 63.56640625 C48.34793821 63.48034208 46.76979441 63.39962774 45.19140625 63.32421875 C43 63 43 63 40 60.75 C38.00503218 58.00691925 37.28653903 56.3429554 37 53 C36.01 53.33 35.02 53.66 34 54 C26.97985846 54.56614045 26.97985846 54.56614045 23.1875 52.375 C18.82902113 47.64293723 17.68097749 42.94981716 16.875 36.6875 C14.93222887 24.38616746 8.20548291 13.55014029 0.99609375 3.56640625 C0 2 0 2 0 0 Z " fill="#E08970" transform="translate(196,98)"/>
<path d="M0 0 C3.68495346 0.72755937 6.62333903 2.65351473 9.13671875 5.421875 C9.828125 7.59375 9.828125 7.59375 10.13671875 9.421875 C10.71679688 9.43605469 11.296875 9.45023437 11.89453125 9.46484375 C18.03415208 9.83970509 20.83313481 11.01582478 25.13671875 15.421875 C25.56984375 16.185 26.00296875 16.948125 26.44921875 17.734375 C27.97601043 19.63745934 27.97601043 19.63745934 30.140625 19.52734375 C30.92308594 19.49253906 31.70554687 19.45773437 32.51171875 19.421875 C35.78467832 19.29967034 36.99283887 19.34993506 40.01171875 20.859375 C44.44319968 26.20321966 45.41131431 33.06394167 46.51171875 39.76953125 C48.11188327 46.56022942 51.03214625 52.34193387 54.69921875 58.234375 C55.09818359 58.88857422 55.49714844 59.54277344 55.90820312 60.21679688 C57.6029861 62.98673433 59.33534096 65.71980831 61.13671875 68.421875 C61.13671875 69.411875 61.13671875 70.401875 61.13671875 71.421875 C51.51863496 71.72401376 42.17192368 71.82337774 33.57421875 67.046875 C28.84687093 64.44417789 24.25142052 63.49474488 19.01171875 62.484375 C12.44687839 61.17382393 6.53294466 59.901935 2.13671875 54.421875 C-1.41392678 48.23032645 -2.71922994 41.52277182 -4.32958984 34.64794922 C-4.86123073 32.43042788 -5.42951515 30.22530154 -6.0078125 28.01953125 C-10.32657356 11.25246628 -10.32657356 11.25246628 -8.86328125 3.421875 C-6.45259774 0.08624645 -4.07347781 -0.15059068 0 0 Z " fill="#CE7E6A" transform="translate(257.86328125,341.578125)"/>
<path d="M0 0 C0.66 0.33 1.32 0.66 2 1 C1.6390625 1.6290625 1.278125 2.258125 0.90625 2.90625 C-2.70890058 9.5741944 -4.25970484 13.9777557 -2.40625 21.3671875 C2.24852527 35.202214 14.44277273 42.50809175 25.81542969 50.45556641 C31.01101929 54.12871122 36.01355302 58.0491997 41 62 C41.54978516 62.43473633 42.09957031 62.86947266 42.66601562 63.31738281 C44.32761327 64.63880331 45.97802094 65.97292029 47.625 67.3125 C48.58664063 68.09238281 49.54828125 68.87226563 50.5390625 69.67578125 C52.9602735 71.96248053 54.4538893 74.06861562 56 77 C54.7315625 77.99 54.7315625 77.99 53.4375 79 C49.50076779 82.26025317 46.27623206 86.09372332 43 90 C37.98343041 88.5666944 35.98547118 86.09436048 33 82 C33 81.34 33 80.68 33 80 C32.45085937 79.7628125 31.90171875 79.525625 31.3359375 79.28125 C28.41812846 77.68084638 26.14161004 75.67876376 23.625 73.5 C19.22803719 69.75451504 14.72195137 66.26349838 10 62.9375 C9.41476563 62.5245166 8.82953125 62.1115332 8.2265625 61.68603516 C7.05591027 60.86081598 5.88501445 60.03594226 4.71386719 59.21142578 C-18.3317175 42.92193985 -18.3317175 42.92193985 -22 30 C-22.61047306 21.83005198 -18.91762819 14.28642565 -14.01953125 7.9375 C-10.09364048 4.17107481 -5.09150359 1.82166072 0 0 Z " fill="#509656" transform="translate(197,232)"/>
<path d="M0 0 C3.01263405 2.89489892 4.92457145 6.40002825 7 10 C7.56219238 10.93271729 7.56219238 10.93271729 8.13574219 11.88427734 C13.54550387 20.91008396 17.00482209 28.92886686 18.26953125 39.4140625 C19.37457656 44.83883041 21.26979924 48.84653283 26 52 C28.74518321 52.24187651 28.74518321 52.24187651 31.6875 52.125 C32.68136719 52.10695312 33.67523438 52.08890625 34.69921875 52.0703125 C35.45847656 52.04710937 36.21773437 52.02390625 37 52 C37.433125 52.928125 37.86625 53.85625 38.3125 54.8125 C39.77470603 57.57444473 40.60774743 59.11519494 43 61 C45.18028396 61.35293451 45.18028396 61.35293451 47.5 61.3125 C51.7316023 61.69093598 51.7316023 61.69093598 54.0625 64.375 C55.31723406 69.22663835 55.79655015 74.02546621 55 79 C53.40553951 81.35591758 52.48715296 81.90091804 49.6953125 82.46875 C42.71815609 82.55357865 42.71815609 82.55357865 39 79.6875 C37.61627871 77.82812452 36.28565599 75.92848399 35 74 C32.74313944 73.42256643 32.74313944 73.42256643 30.1875 73.1875 C26.473461 72.55509509 24.41728223 72.00969695 22 69.0625 C21.34 68.051875 20.68 67.04125 20 66 C19.34 65.01 18.68 64.02 18 63 C15.72575112 62.78735065 15.72575112 62.78735065 13.1875 63.0625 C9.80718643 63.13545641 8.2269288 63.10853116 5.125 61.625 C0.52769512 55.94597633 -1.0146657 49.71775556 -1.875 42.5625 C-3.31072879 31.99256564 -9.49299133 24.02788327 -15.4609375 15.43359375 C-17 13 -17 13 -17 11 C-17.66 11 -18.32 11 -19 11 C-17.58590577 7.60470083 -15.97643772 5.94087183 -13 3.8125 C-11.948125 3.04873047 -11.948125 3.04873047 -10.875 2.26953125 C-7.07277321 -0.30489314 -4.61217297 -0.83170332 0 0 Z " fill="#509757" transform="translate(196,99)"/>
<path d="M0 0 C3.68022604 0.78861986 5.18774939 2.78674236 7.625 5.5625 C7.955 5.8925 8.285 6.2225 8.625 6.5625 C8.78535359 8.05913346 8.90264506 9.56045239 9 11.0625 C10.2721912 24.11628793 17.18639524 35.09021883 24.875 45.4375 C31.05605938 53.78436365 33.32336153 59.00948128 32.625 69.5625 C31.965 69.5625 31.305 69.5625 30.625 69.5625 C30.68816406 70.2946875 30.75132812 71.026875 30.81640625 71.78125 C30.43192075 77.36805975 25.75877715 81.57128124 21.8125 85.25390625 C18.900585 87.53533965 16.88862153 88.53853441 13.1875 88.875 C12.341875 88.771875 11.49625 88.66875 10.625 88.5625 C10.94984375 87.76199219 10.94984375 87.76199219 11.28125 86.9453125 C14.04214863 79.55735227 15.1313462 72.62082319 12.125 65.125 C9.82332325 60.48899861 6.74948029 56.45764038 3.65234375 52.328125 C-4.97468099 40.55946697 -9.41749238 29.28541869 -8.375 14.5625 C-5.76435553 1.3652421 -5.76435553 1.3652421 0 0 Z " fill="#509757" transform="translate(312.375,322.4375)"/>
<path d="M0 0 C12.63650312 1.03155127 26.45024205 4.18258545 36 13 C38.06713559 16.84786083 38.38907786 20.71035964 39 25 C39.40363699 26.77477025 39.82583177 28.54537385 40.26171875 30.3125 C40.49568359 31.26753418 40.72964844 32.22256836 40.97070312 33.20654297 C41.43749312 35.10709054 41.9061484 37.00718126 42.37695312 38.90673828 C43.76573346 44.87101565 44.84067198 50.86991862 44 57 C41.32552199 60.4038811 39.77185385 60.90351827 35.5 61.4375 C30.3882591 60.79853239 28.102878 59.3623787 24.875 55.375 C23.44335529 52.79803952 22.51220651 50.78811793 21.62890625 48.04296875 C21.37109375 47.24987305 21.11328125 46.45677734 20.84765625 45.63964844 C20.42806641 44.33302246 20.42806641 44.33302246 20 43 C18.69351519 38.97718442 17.37895093 34.95706351 16.0625 30.9375 C15.72798828 29.90044922 15.39347656 28.86339844 15.04882812 27.79492188 C12.31096201 19.47581809 9.43747389 12.31374216 3.75 5.5625 C0 1.08029197 0 1.08029197 0 0 Z " fill="#F2B099" transform="translate(225,110)"/>
<path d="M0 0 C3.68495346 0.72755937 6.62333903 2.65351473 9.13671875 5.421875 C9.828125 7.59375 9.828125 7.59375 10.13671875 9.421875 C12.11671875 9.421875 14.09671875 9.421875 16.13671875 9.421875 C16.13671875 9.751875 16.13671875 10.081875 16.13671875 10.421875 C14.48671875 10.421875 12.83671875 10.421875 11.13671875 10.421875 C12.45671875 14.051875 13.77671875 17.681875 15.13671875 21.421875 C6.56529018 21.56473214 6.56529018 21.56473214 3.13671875 20.421875 C3.13671875 21.081875 3.13671875 21.741875 3.13671875 22.421875 C7.09671875 22.421875 11.05671875 22.421875 15.13671875 22.421875 C15.67296875 23.741875 16.20921875 25.061875 16.76171875 26.421875 C17.13167969 27.329375 17.50164062 28.236875 17.8828125 29.171875 C18.79722647 31.54194486 19.63309089 33.88620896 20.421875 36.296875 C23.18368208 44.52926011 26.0086931 50.3995398 32.37890625 56.6015625 C34.13671875 58.421875 34.13671875 58.421875 34.13671875 60.421875 C31.28047972 59.82644739 28.42702752 59.22084999 25.57421875 58.609375 C24.77435547 58.44373047 23.97449219 58.27808594 23.15039062 58.10742188 C18.14564491 57.0247626 13.79563937 55.53752011 9.13671875 53.421875 C8.23566406 53.14988281 7.33460938 52.87789063 6.40625 52.59765625 C3.4317346 51.55255624 1.49409933 50.53980186 -0.86328125 48.421875 C-2.75937866 43.92999353 -3.6170829 39.45206201 -4.44238281 34.6640625 C-4.86448653 32.41545429 -5.39700563 30.2274717 -5.98046875 28.015625 C-10.35435968 11.40115958 -10.35435968 11.40115958 -8.86328125 3.421875 C-6.45259774 0.08624645 -4.07347781 -0.15059068 0 0 Z " fill="#DC9E8B" transform="translate(257.86328125,341.578125)"/>
<path d="M0 0 C6.641518 3.90956929 9.16466972 8.73537585 11.09375 16.01367188 C11.48046875 17.6465918 11.48046875 17.6465918 11.875 19.3125 C12.15601563 20.38951172 12.43703125 21.46652344 12.7265625 22.57617188 C14.37791532 29.00632165 15.77265733 35.47642675 17 42 C11.97843309 40.95369194 7.86618625 38.37340365 3.4375 35.875 C2.57447266 35.41351563 1.71144531 34.95203125 0.82226562 34.4765625 C-4.75384056 31.32240142 -7.18972773 29.19228055 -9 23 C-9.391875 21.7625 -9.78375 20.525 -10.1875 19.25 C-11.52804502 13.38368334 -12.54660021 6.66015236 -9.4375 1.3125 C-5.86150127 -0.61303778 -4.02466016 -0.73785436 0 0 Z " fill="#519858" transform="translate(242,352)"/>
<path d="M0 0 C3.38951067 1.28641212 6.49131521 2.75420554 9.625 4.57421875 C10.92352905 5.32384888 10.92352905 5.32384888 12.24829102 6.08862305 C13.15635498 6.61625244 14.06441895 7.14388184 15 7.6875 C28.38863385 16.35676528 28.38863385 16.35676528 43 22 C42.73212125 25.92888829 42.47562903 27.54876221 39.5625 30.3125 C34.90719649 33.37818768 31.49477934 33.47294658 26 33 C22.8448158 32.31267857 19.96842318 31.26196304 17 30 C16.19949219 29.67128906 15.39898437 29.34257812 14.57421875 29.00390625 C9.24398744 26.48273301 6.74263522 24.01648702 4.69921875 18.46875 C3.74810701 15.11063479 3.03805434 11.74569493 2.4375 8.30859375 C1.89309627 5.43589194 1.00965179 2.74048342 0 0 Z " fill="#509857" transform="translate(258,117)"/>
<path d="M0 0 C3.95279659 -0.93093901 7.08170805 -1.17347304 11 0 C18.59058022 8.38080192 22.05940375 17.97692433 23.625 29 C23.7590625 29.88945312 23.893125 30.77890625 24.03125 31.6953125 C24.63841729 35.84635419 25.06974621 39.79662862 25 44 C22.3125 44.375 22.3125 44.375 19 44 C14.19055637 39.51847298 12.39551632 35.10826625 11.7578125 28.484375 C10.69743633 19.01857797 6.57808588 11.73033489 1.90795898 3.59716797 C1.23718253 2.41722186 0.60699487 1.21398974 0 0 Z " fill="#F0AF97" transform="translate(201,107)"/>
<path d="M0 0 C4.87259727 0.76720962 6.85715187 2.0926753 10 6 C11.15881418 9.11050122 11.83618653 12.13574273 12.453125 15.390625 C14.16155066 24.37363735 16.8650018 31.15277655 21.79296875 38.8984375 C23 41 23 41 23 43 C19.37194625 43.95435234 16.60493352 44.12654172 13 43 C1.6138445 31.1799209 0.58012327 15.5833114 0 0 Z " fill="#DB9F8B" transform="translate(291,361)"/>
<path d="M0 0 C1 1 1 1 1.0625 4.5625 C1.041875 5.696875 1.02125 6.83125 1 8 C0.24074219 8.25394531 -0.51851562 8.50789062 -1.30078125 8.76953125 C-2.29464844 9.11371094 -3.28851563 9.45789063 -4.3125 9.8125 C-5.29863281 10.14894531 -6.28476563 10.48539063 -7.30078125 10.83203125 C-9.95966611 11.98254728 -11.3934143 12.60651518 -13 15 C-13.28795059 17.67775388 -13.28795059 17.67775388 -13.0625 20.5625 C-12.91015625 23.50390625 -12.91015625 23.50390625 -13 26 C-15 28 -15 28 -17.9375 28.375 C-21 28 -21 28 -22.65625 26.3359375 C-25.23078956 21.86042978 -24.78512397 16.97883496 -24 12 C-21.43903164 6.54364129 -17.29548286 2.8167462 -12 0 C-7.8296232 -1.3901256 -4.27773598 -0.82264154 0 0 Z " fill="#FEF2EE" transform="translate(228,233)"/>
<path d="M0 0 C1.71875 0.12109375 1.71875 0.12109375 4 1 C5.6666244 2.99818876 7.08182587 4.90135751 8.5 7.0625 C8.87769531 7.61099609 9.25539062 8.15949219 9.64453125 8.72460938 C15.46128168 17.34979085 18.62897424 26.41569683 21.75 36.3125 C22.16487121 37.59976849 22.58023235 38.88687919 22.99609375 40.17382812 C26 49.59970671 26 49.59970671 26 53 C22.91082652 52.6567585 21.22894021 52.17806461 18.75 50.25 C16.82193539 47.77105979 16.3432415 46.08917348 16 43 C15.01 42.67 14.02 42.34 13 42 C13.66 42 14.32 42 15 42 C14.68804687 41.13890625 14.37609375 40.2778125 14.0546875 39.390625 C13.03927899 36.12627466 12.53372367 33.13656753 12.125 29.75 C10.81238355 20.79571722 7.54048064 13.55020831 2.953125 5.8125 C2 4 2 4 2 2 C1.34 2 0.68 2 0 2 C0 1.34 0 0.68 0 0 Z " fill="#F1AE97" transform="translate(217,108)"/>
<path d="M0 0 C3.87554506 0.22145972 4.9399318 0.93713793 7.6875 3.8125 C11.23333333 8.7 11.23333333 8.7 12 11 C11.625 13.25 11.625 13.25 11 15 C9.68 15 8.36 15 7 15 C8.65 15.33 10.3 15.66 12 16 C12.1959375 17.13695312 12.391875 18.27390625 12.59375 19.4453125 C14.42513958 29.17780976 17.00338602 36.88663274 22.29296875 45.27734375 C24 48 24 48 25 51 C24.01 51 23.02 51 22 51 C20.21779449 49.03681321 18.70960068 47.15385121 17.1875 45 C16.74317627 44.37279053 16.29885254 43.74558105 15.84106445 43.09936523 C11.16571548 36.2025233 8.53651731 28.87971354 6 21 C5.28997048 18.86215156 4.57533954 16.72587571 3.8605957 14.58959961 C3.22281138 12.66884399 2.60115845 10.7427539 1.98046875 8.81640625 C1.27396166 6.12885538 1.27396166 6.12885538 0 5 C-0.04063832 3.33382885 -0.042721 1.66611905 0 0 Z " fill="#DC9E8B" transform="translate(274,352)"/>
<path d="M0 0 C4.9325 4.7733871 4.9325 4.7733871 5.11352539 8.06298828 C5.10567017 9.30411377 5.10567017 9.30411377 5.09765625 10.5703125 C5.09282227 11.91416016 5.09282227 11.91416016 5.08789062 13.28515625 C5.07951172 14.22230469 5.07113281 15.15945313 5.0625 16.125 C5.05798828 17.06988281 5.05347656 18.01476562 5.04882812 18.98828125 C5.03702357 21.32558387 5.02055759 23.66276061 5 26 C4.34 26.33 3.68 26.66 3 27 C2.94465088 26.32420898 2.88930176 25.64841797 2.83227539 24.95214844 C2.57909469 21.88447302 2.3208521 18.81724404 2.0625 15.75 C1.93198242 14.15478516 1.93198242 14.15478516 1.79882812 12.52734375 C1.71181641 11.50253906 1.62480469 10.47773438 1.53515625 9.421875 C1.456604 8.47924805 1.37805176 7.53662109 1.29711914 6.56542969 C1.03387689 4.29250478 0.61768892 2.19924405 0 0 Z " fill="#CF816C" transform="translate(343,377)"/>
<path d="M0 0 C0 0.33 0 0.66 0 1 C-4.455 1.495 -4.455 1.495 -9 2 C-9 2.66 -9 3.32 -9 4 C-9.59014893 4.176521 -10.18029785 4.35304199 -10.78833008 4.53491211 C-13.46319776 5.33529316 -16.13785099 6.13638854 -18.8125 6.9375 C-19.74126953 7.21529297 -20.67003906 7.49308594 -21.62695312 7.77929688 C-22.9659668 8.18051758 -22.9659668 8.18051758 -24.33203125 8.58984375 C-25.56530151 8.95903931 -25.56530151 8.95903931 -26.82348633 9.33569336 C-28.55703226 9.86479919 -30.28051722 10.42683907 -32 11 C-32 10.34 -32 9.68 -32 9 C-23.09 5.535 -23.09 5.535 -14 2 C-14 1.67 -14 1.34 -14 1 C-9.23692563 0.04738513 -4.8333472 -0.08333357 0 0 Z " fill="#B37161" transform="translate(395,451)"/>
<path d="M0 0 C6.82369237 2.52729347 13.15230106 6.51999251 18 12 C14.41925318 12.51153526 11.97053124 12.71384634 8.9765625 10.51171875 C7.17998073 8.74080243 5.50666968 7.02415805 4 5 C4 4.34 4 3.68 4 3 C2.68 2.34 1.36 1.68 0 1 C0 0.67 0 0.34 0 0 Z " fill="#DE8B71" transform="translate(78,76)"/>
<path d="M0 0 C4.02051399 -0.47161454 5.53433488 -0.36728517 8.7734375 2.1875 C9.63195312 3.115625 10.49046875 4.04375 11.375 5 C12.24898438 5.928125 13.12296875 6.85625 14.0234375 7.8125 C14.67570312 8.534375 15.32796875 9.25625 16 10 C15.01 10.495 15.01 10.495 14 11 C11.50390625 9.63671875 11.50390625 9.63671875 8.5625 7.6875 C7.59441406 7.05199219 6.62632812 6.41648437 5.62890625 5.76171875 C4.76136719 5.18035156 3.89382813 4.59898437 3 4 C2.01 3.34 1.02 2.68 0 2 C0 1.34 0 0.68 0 0 Z " fill="#CE7F6A" transform="translate(418,423)"/>
<path d="M0 0 C0.33 0 0.66 0 1 0 C2.32 8.25 3.64 16.5 5 25 C2.0220853 22.0220853 0.22647899 20.10114058 -0.22705078 15.89355469 C-0.21657715 15.16040039 -0.20610352 14.42724609 -0.1953125 13.671875 C-0.18886719 12.87265625 -0.18242187 12.0734375 -0.17578125 11.25 C-0.15902344 10.425 -0.14226562 9.6 -0.125 8.75 C-0.11597656 7.90953125 -0.10695312 7.0690625 -0.09765625 6.203125 C-0.07415817 4.13529396 -0.03828908 2.06761005 0 0 Z " fill="#DF8870" transform="translate(167,110)"/>
<path d="M0 0 C2.02742856 1.95751723 3.89065743 3.8512941 5.5625 6.125 C7.03798371 8.25847264 7.03798371 8.25847264 10 10 C9.67 11.32 9.34 12.64 9 14 C8.34 13.34 7.68 12.68 7 12 C2.58782801 12.36165344 -1.67443132 13.05378185 -6 14 C-4 11 -4 11 -1.8359375 10.48828125 C-1.02382813 10.43027344 -0.21171875 10.37226563 0.625 10.3125 C1.44226563 10.24675781 2.25953125 10.18101562 3.1015625 10.11328125 C3.72804688 10.07589844 4.35453125 10.03851563 5 10 C4.360625 9.278125 3.72125 8.55625 3.0625 7.8125 C1.01326465 5.01808816 0.38667054 3.38336726 0 0 Z " fill="#B97666" transform="translate(284,419)"/>
<path d="M0 0 C0.99 0 1.98 0 3 0 C2.67 5.94 2.34 11.88 2 18 C1.67 18 1.34 18 1 18 C0.10395632 11.95170514 -0.11269443 6.1105424 0 0 Z " fill="#C07A69" transform="translate(348,337)"/>
<path d="M0 0 C1.32 0.33 2.64 0.66 4 1 C2.02 3.97 0.04 6.94 -2 10 C-3 8 -3 8 -2.44140625 6.0546875 C-2.15136719 5.33539063 -1.86132812 4.61609375 -1.5625 3.875 C-1.27503906 3.15054687 -0.98757812 2.42609375 -0.69140625 1.6796875 C-0.46324219 1.12539063 -0.23507813 0.57109375 0 0 Z " fill="#B77363" transform="translate(233,391)"/>
<path d="M0 0 C1.39195915 4.17587745 -0.17676781 6.13474776 -2 10 C-2.66 9.67 -3.32 9.34 -4 9 C-3.35455571 5.51460083 -1.89865603 2.97180943 0 0 Z " fill="#B16F5F" transform="translate(356,434)"/>
</svg>
